<?xml version="1.0" encoding="UTF-8" standalone="no"?>
<!-- Generator: Adobe Illustrator 21.0.0, SVG Export Plug-In . SVG Version: 6.00 Build 0)  -->

<svg
   xmlns:dc="http://purl.org/dc/elements/1.1/"
   xmlns:cc="http://creativecommons.org/ns#"
   xmlns:rdf="http://www.w3.org/1999/02/22-rdf-syntax-ns#"
   xmlns="http://www.w3.org/2000/svg"
   xmlns:xlink="http://www.w3.org/1999/xlink"
   xmlns:sodipodi="http://sodipodi.sourceforge.net/DTD/sodipodi-0.dtd"
   xmlns:inkscape="http://www.inkscape.org/namespaces/inkscape"
   version="1.1"
   x="0px"
   y="0px"
   viewBox="0 0 194.27557 55.306545"
   xml:space="preserve"
   id="svg76"
   sodipodi:docname="powered-by-logo.svg"
   width="194.27557"
   height="55.306545"
   inkscape:version="0.92.2 5c3e80d, 2017-08-06"><metadata
     id="metadata82"><rdf:RDF><cc:Work
         rdf:about=""><dc:format>image/svg+xml</dc:format><dc:type
           rdf:resource="http://purl.org/dc/dcmitype/StillImage" /><dc:title></dc:title></cc:Work></rdf:RDF></metadata><defs
     id="defs80" /><sodipodi:namedview
     pagecolor="#ffffff"
     bordercolor="#666666"
     borderopacity="1"
     objecttolerance="10"
     gridtolerance="10"
     guidetolerance="10"
     inkscape:pageopacity="0"
     inkscape:pageshadow="2"
     inkscape:window-width="1134"
     inkscape:window-height="675"
     id="namedview78"
     showgrid="false"
     inkscape:pagecheckerboard="true"
     fit-margin-top="0"
     fit-margin-left="0"
     fit-margin-right="0"
     fit-margin-bottom="0"
     inkscape:zoom="2.2351473"
     inkscape:cx="109.68419"
     inkscape:cy="15.230778"
     inkscape:window-x="212"
     inkscape:window-y="188"
     inkscape:window-maximized="0"
     inkscape:current-layer="g70" /><style
     type="text/css"
     id="style2">
	.st0{fill:#65707B;}
	.st1{font-family:'ArialMT';}
	.st2{font-size:14.2941px;}
	.st3{fill:url(#SVGID_1_);}
	.st4{fill:url(#SVGID_2_);}
	.st5{fill:url(#SVGID_3_);}
	.st6{fill:url(#SVGID_4_);}
	.st7{fill:#6C3471;}
	.st8{display:none;}
	.st9{display:inline;}
</style><g
     id="Layer_1"
     transform="translate(-6.9,-21.793456)"><g
       id="g70"><g
         id="g33"><g
           id="g31"><g
             id="g29"><linearGradient
               id="SVGID_1_"
               gradientUnits="userSpaceOnUse"
               x1="313.31619"
               y1="-7.7968001"
               x2="317.26349"
               y2="-11.7441"
               gradientTransform="matrix(4.1269,0,0,4.1269,-1286.7194,82.603)"><stop
                 offset="0.4919"
                 style="stop-color:#B83694"
                 id="stop6" /><stop
                 offset="0.8321"
                 style="stop-color:#772461"
                 id="stop8" /></linearGradient><path
               class="st3"
               d="m 9.9,54.1 c 4,-6.8 11.4,-11.5 20,-11.5 v 0 C 25.9,35.8 18.5,31.1 9.9,31.1 v 0 c -1.9,3.3 -3,7.3 -3,11.5 0,4.2 1.1,8 3,11.5 z"
               id="path11"
               inkscape:connector-curvature="0"
               style="fill:url(#SVGID_1_)" /><linearGradient
               id="SVGID_2_"
               gradientUnits="userSpaceOnUse"
               x1="313.37921"
               y1="-2.1531"
               x2="317.19199"
               y2="-5.9660001"
               gradientTransform="matrix(4.1269,0,0,4.1269,-1286.7194,82.603)"><stop
                 offset="0.2981"
                 style="stop-color:#009BD4"
                 id="stop13" /><stop
                 offset="0.3114"
                 style="stop-color:#009FDA"
                 id="stop15" /><stop
                 offset="0.8805"
                 style="stop-color:#006B96"
                 id="stop17" /></linearGradient><path
               class="st4"
               d="m 29.9,65.6 v 0 c -8.6,0 -16,-4.7 -20,-11.5 -1.9,3.4 -3,7.3 -3,11.5 0,4.2 1.2,8.1 3,11.5 v 0 c 8.6,0 16.1,-4.7 20,-11.5 z"
               id="path20"
               inkscape:connector-curvature="0"
               style="fill:url(#SVGID_2_)" /><linearGradient
               id="SVGID_3_"
               gradientUnits="userSpaceOnUse"
               x1="314.19949"
               y1="-6.9131999"
               x2="319.78821"
               y2="-6.9131999"
               gradientTransform="matrix(4.1269,0,0,4.1269,-1286.7194,82.603)"><stop
                 offset="0.4282"
                 style="stop-color:#6B3974"
                 id="stop22" /><stop
                 offset="0.7255"
                 style="stop-color:#452650"
                 id="stop24" /></linearGradient><path
               class="st5"
               d="m 29.9,42.6 v 0 c -8.6,0 -16,4.7 -20,11.5 4,6.9 11.5,11.5 20,11.5 v 0 c 2,-3.4 3,-7.3 3,-11.5 0.1,-4.2 -1,-8.2 -3,-11.5 z"
               id="path27"
               inkscape:connector-curvature="0"
               style="fill:url(#SVGID_3_)" /></g></g></g><linearGradient
         id="SVGID_4_"
         gradientUnits="userSpaceOnUse"
         x1="321.4968"
         y1="-7.2568002"
         x2="360.25089"
         y2="-7.2568002"
         gradientTransform="matrix(4.1269,0,0,4.1269,-1286.7194,82.603)"><stop
           offset="0.1212"
           style="stop-color:#089DD9"
           id="stop35" /><stop
           offset="0.3641"
           style="stop-color:#243776"
           id="stop37" /><stop
           offset="0.627"
           style="stop-color:#6C3471"
           id="stop39" /><stop
           offset="0.9047"
           style="stop-color:#A12C83"
           id="stop41" /></linearGradient><path
         class="st6"
         d="m 65.1,63.1 c 0,6.7 -5.6,11.4 -13.3,11.4 -3.2,0 -6.8,-0.7 -10.5,-2.2 l 2.2,-6 c 2.9,1.3 5.5,1.9 7.5,1.9 3.5,0 5.9,-1.9 5.9,-4.7 v -0.8 c -1.7,1.4 -3.8,2.2 -6.2,2.2 -6.3,0 -10.7,-5 -10.7,-12 0,-7.1 4.4,-12.1 10.7,-12.1 2.7,0 5.1,0.9 6.8,2.7 l 1,-2.1 H 65 V 63.1 Z M 53,58.6 c 2.5,0 4.1,-1.9 4.1,-4.4 v -2.4 c 0,-2.6 -1.7,-4.5 -4.1,-4.5 -2.7,0 -4.5,2.3 -4.5,5.6 -0.1,3.3 1.8,5.7 4.5,5.7 z M 71.8,30.7 c 2.8,0 4.7,1.9 4.7,4.7 0,2.7 -1.9,4.7 -4.7,4.7 -2.7,0 -4.7,-1.9 -4.7,-4.7 0,-2.8 2,-4.7 4.7,-4.7 z m -4,10.7 H 76 v 22.9 h -8.2 z m 26.9,23 H 87.2 L 77.9,41.5 h 8.6 L 91,55.1 95.5,41.3 h 8.6 z m 20.8,-23.5 c 6.8,0 11.6,4.7 11.6,11.7 0,0.9 0,1.7 -0.1,2.5 h -15.7 c 0.6,2.4 3,3.9 6,3.9 1.9,0 4,-0.7 6.4,-1.9 l 2.4,5.5 c -3.5,1.6 -6.9,2.4 -9.8,2.4 -7.8,0 -13.1,-5 -13.1,-12 -0.1,-7.2 5,-12.1 12.3,-12.1 z m -4.3,9.3 h 8 c -0.3,-2 -1.8,-3.4 -3.8,-3.4 -2.1,0 -3.7,1.4 -4.2,3.4 z m 18.4,-8.8 h 6.5 l 1,2.9 c 1.4,-2 3.7,-3.2 6.4,-3.2 0.8,0 1.8,0.1 2.7,0.3 l -0.7,6.5 c -0.8,-0.1 -1.7,-0.3 -2.7,-0.3 -3.1,0 -5,2.3 -5,5.6 v 11.2 h -8.2 z M 172,63.1 c 0,6.7 -5.6,11.4 -13.3,11.4 -3.2,0 -6.8,-0.7 -10.5,-2.2 l 2.2,-6 c 2.9,1.3 5.5,1.9 7.5,1.9 3.5,0 5.9,-1.9 5.9,-4.7 v -0.8 c -1.7,1.4 -3.8,2.2 -6.2,2.2 -6.3,0 -10.7,-5 -10.7,-12 0,-7.1 4.4,-12.1 10.7,-12.1 2.7,0 5.1,0.9 6.8,2.7 l 1,-2.1 h 6.5 z m -12.1,-4.5 c 2.5,0 4.1,-1.9 4.1,-4.4 v -2.4 c 0,-2.6 -1.7,-4.5 -4.1,-4.5 -2.7,0 -4.5,2.3 -4.5,5.6 0,3.3 1.8,5.7 4.5,5.7 z m 30.3,7.6 c -2.2,5.6 -5.6,8.5 -10.4,8.5 -1,0 -2.5,-0.1 -3.9,-0.5 l 1,-6.3 c 0.8,0.2 1.5,0.3 2.1,0.3 1.8,0 3,-0.9 3.8,-3 l 0.4,-1 -9.3,-22.6 h 8.6 l 4.5,13.8 4.5,-13.8 h 8.6 z"
         id="path44"
         inkscape:connector-curvature="0"
         style="fill:url(#SVGID_4_)" /><text
         xml:space="preserve"
         style="font-style:normal;font-weight:normal;font-size:10.66666698px;line-height:1.25;font-family:sans-serif;letter-spacing:0px;word-spacing:0px;fill:#bc2b87;fill-opacity:1;stroke:none"
         x="130.82401"
         y="31.337727"
         id="text898"><tspan
           sodipodi:role="line"
           id="tspan896"
           x="130.82401"
           y="31.337727"
           style="font-style:normal;font-variant:normal;font-weight:normal;font-stretch:normal;font-size:13.33333302px;font-family:Arial;-inkscape-font-specification:Arial">Powered by</tspan></text>
</g></g><g
     id="Layer_2"
     class="st8"
     style="display:none"
     transform="translate(-6.9,-21.793456)"><g
       id="NPDWWU.tif"
       class="st9"
       style="display:inline"><image
         sodipodi:absref="/Users/pawel/Developer/ibid/ibid-system/client-lite-ui/src/main/webapp/images/DD7BAD413BCE4CD7.png"
         xlink:href="DD7BAD413BCE4CD7.png"
         transform="translate(3,2.5)"
         id="Layer_1_1_"
         height="93"
         width="200"
         style="overflow:visible" /></g></g></svg>